<svg width="34" height="34" viewBox="0 0 34 34" fill="none" xmlns="http://www.w3.org/2000/svg">
<path d="M31.875 14.875H19.125V2.125C19.125 1.56141 18.9011 1.02091 18.5026 0.622398C18.1041 0.223884 17.5636 0 17 0C16.4364 0 15.8959 0.223884 15.4974 0.622398C15.0989 1.02091 14.875 1.56141 14.875 2.125V14.875H2.125C1.56141 14.875 1.02091 15.0989 0.622398 15.4974C0.223884 15.8959 0 16.4364 0 17C0 17.5636 0.223884 18.1041 0.622398 18.5026C1.02091 18.9011 1.56141 19.125 2.125 19.125H14.875V31.875C14.875 32.4386 15.0989 32.9791 15.4974 33.3776C15.8959 33.7761 16.4364 34 17 34C17.5636 34 18.1041 33.7761 18.5026 33.3776C18.9011 32.9791 19.125 32.4386 19.125 31.875V19.125H31.875C32.4386 19.125 32.9791 18.9011 33.3776 18.5026C33.7761 18.1041 34 17.5636 34 17C34 16.4364 33.7761 15.8959 33.3776 15.4974C32.9791 15.0989 32.4386 14.875 31.875 14.875Z" fill="#FFA451"/>
</svg>
