<svg width="41" height="41" viewBox="0 0 41 41" fill="none" xmlns="http://www.w3.org/2000/svg">
<path fill-rule="evenodd" clip-rule="evenodd" d="M29.66 12.9716C32.0862 16.2841 34.1644 18.6932 34.1644 23.6082C34.1644 31.2565 28.1248 37.4883 20.6664 37.5812C20.6103 37.5826 20.5541 37.5834 20.4977 37.5834C20.4413 37.5834 20.3852 37.5826 20.3291 37.5812C12.8707 37.4883 6.83105 31.2565 6.83105 23.6082C6.83105 22.3952 6.98409 21.1889 7.28604 20.0228L7.83539 17.9013C8.68458 18.5984 9.61543 19.2058 10.6279 19.7235C11.6404 20.2412 12.2562 20.3832 12.4752 20.1496C12.7053 17.471 12.9447 15.2488 13.1936 13.483C14.0144 7.65956 17.5186 4.30413 23.7062 3.41669L23.2781 5.02325C22.2692 8.80934 22.4706 11.2727 22.817 12.6726C23.1885 14.1735 24.1487 15.609 25.0561 15.8409C27.0811 16.3586 28.2764 14.9389 28.6419 11.5817L29.66 12.9716Z" stroke="#CC13DB" stroke-width="3.41667" stroke-linecap="round" stroke-linejoin="round"/>
<path fill-rule="evenodd" clip-rule="evenodd" d="M19.5149 20.8528C16.8856 23.33 16.3449 25.9092 17.893 28.5905C19.0058 30.518 21.552 31.1534 23.5841 30.0115C23.5994 30.0031 23.6147 29.9945 23.63 29.9857C23.6453 29.9769 23.6604 29.9679 23.6753 29.9588C25.6803 28.7699 26.4059 26.2519 25.2903 24.3197C24.8124 23.4919 22.8873 22.3363 19.5149 20.8528Z" stroke="#CC13DB" stroke-width="3.41667" stroke-linecap="round" stroke-linejoin="round"/>
</svg>
