<svg width="205" height="212" viewBox="0 0 205 212" fill="none" xmlns="http://www.w3.org/2000/svg">
<path d="M52.489 162.523H59.424V173.525H52.489V162.523ZM55.9825 137.807C66.3068 137.807 74.024 143.074 74.024 151.104C74.024 159.238 66.3068 164.452 55.9825 164.452C45.6583 164.452 37.9411 159.238 37.9411 151.104C37.9411 143.074 45.6583 137.807 55.9825 137.807ZM55.9825 143.282C49.3604 143.282 44.7718 146.202 44.7718 151.104C44.7718 156.109 49.3604 158.977 55.9825 158.977C62.6047 158.977 67.1933 156.109 67.1933 151.104C67.1933 146.202 62.6047 143.282 55.9825 143.282ZM34.1868 172.43H77.8825V178.061H34.1868V172.43ZM103.689 165.391C114.118 165.391 120.792 168.832 120.792 174.568C120.792 180.199 114.118 183.641 103.689 183.641C93.2606 183.641 86.5863 180.199 86.5863 174.568C86.5863 168.832 93.2606 165.391 103.689 165.391ZM103.689 170.605C97.1713 170.605 93.4692 171.961 93.4692 174.568C93.4692 177.123 97.1713 178.426 103.689 178.426C110.207 178.426 113.909 177.123 113.909 174.568C113.909 171.961 110.207 170.605 103.689 170.605ZM87.1078 137.494H117.663V142.969H87.1078V137.494ZM82.2063 156.891H125.693V162.419H82.2063V156.891ZM98.3185 148.496H105.201V158.299H98.3185V148.496ZM113.648 137.494H120.531V141.457C120.531 145.264 120.531 149.383 119.228 154.389L112.345 153.659C113.648 148.705 113.648 145.211 113.648 141.457V137.494ZM138.725 144.012H143.835V144.742C143.835 151.416 140.446 158.143 132.989 160.75L129.965 155.588C135.857 153.346 138.725 148.861 138.725 144.742V144.012ZM140.133 144.012H145.243V144.742C145.243 148.757 148.111 152.929 154.003 154.806L151.083 159.916C143.522 157.569 140.133 151.312 140.133 144.742V144.012ZM131.373 139.893H152.543V145.264H131.373V139.893ZM138.725 135.565H145.243V143.491H138.725V135.565ZM164.64 135.409H171.21V160.698H164.64V135.409ZM158.8 145.316H166.465V150.791H158.8V145.316ZM154.577 136.295H161.042V160.333H154.577V136.295ZM138.412 162.419H171.21V175.089H145.347V181.19H138.464V170.24H164.432V167.581H138.412V162.419ZM138.464 178.009H172.774V183.171H138.464V178.009Z" fill="#FFA451"/>
<path d="M0.121547 205.786H11.6015V206.738H0.121547V205.786ZM5.24555 206.36H6.39355V211.092H5.24555V206.36ZM1.57755 199.136H10.1175V204.078H1.57755V199.136ZM8.98355 200.074H2.72555V203.14H8.98355V200.074ZM16.2065 205.856H17.3545V208.964H16.2065V205.856ZM20.2525 205.828H21.3865V208.95H20.2525V205.828ZM13.0145 208.572H24.4805V209.538H13.0145V208.572ZM14.4005 199.374H23.0665V203.196H15.5905V205.744H14.4425V202.272H21.9185V200.312H14.4005V199.374ZM14.4425 205.226H23.3605V206.178H14.4425V205.226ZM34.5454 198.45H35.7074V207.942H34.5454V198.45ZM35.3434 202.594H37.5834V203.574H35.3434V202.594ZM25.9214 199.976H33.3974V200.914H25.9214V199.976ZM29.6594 201.614C31.4514 201.614 32.6834 202.552 32.6834 203.98C32.6834 205.394 31.4514 206.332 29.6594 206.332C27.8534 206.332 26.6214 205.394 26.6214 203.98C26.6214 202.552 27.8534 201.614 29.6594 201.614ZM29.6594 202.524C28.5114 202.524 27.7274 203.098 27.7274 203.98C27.7274 204.848 28.5114 205.422 29.6594 205.422C30.7934 205.422 31.5774 204.848 31.5774 203.98C31.5774 203.098 30.7934 202.524 29.6594 202.524ZM29.0714 198.436H30.2334V200.466H29.0714V198.436ZM27.8254 209.86H36.2814V210.812H27.8254V209.86ZM27.8254 207.186H28.9874V210.266H27.8254V207.186ZM51.8766 198.436H52.9966V211.092H51.8766V198.436ZM49.7346 203.504H52.1706V204.47H49.7346V203.504ZM49.0066 198.716H50.0986V210.448H49.0066V198.716ZM42.7066 207.004H43.5326C45.3806 207.004 46.6406 206.934 48.1106 206.626L48.2226 207.592C46.7106 207.914 45.4366 207.97 43.5326 207.97H42.7066V207.004ZM42.7066 199.976H47.4106V200.928H43.8546V207.438H42.7066V199.976ZM55.1655 199.766H62.6415V200.718H55.1655V199.766ZM58.9035 201.362C60.6955 201.362 61.9275 202.258 61.9275 203.658C61.9275 205.044 60.6955 205.926 58.9035 205.926C57.0835 205.926 55.8655 205.044 55.8655 203.658C55.8655 202.258 57.0835 201.362 58.9035 201.362ZM58.9035 202.272C57.7415 202.272 56.9715 202.804 56.9715 203.658C56.9715 204.484 57.7415 205.03 58.9035 205.03C60.0375 205.03 60.8215 204.484 60.8215 203.658C60.8215 202.804 60.0375 202.272 58.9035 202.272ZM63.7895 198.436H64.9515V206.346H63.7895V198.436ZM64.6295 201.922H66.8275V202.888H64.6295V201.922ZM56.7335 207.032H64.9515V211.092H63.7895V207.984H56.7335V207.032ZM58.3155 198.366H59.4775V200.298H58.3155V198.366ZM70.6624 199.22H71.5864V200.914C71.5864 202.804 70.4944 204.792 68.6324 205.618L68.0024 204.708C69.6684 203.98 70.6624 202.342 70.6624 200.914V199.22ZM70.8444 199.22H71.7684V200.914C71.7684 202.314 72.7204 203.742 74.3444 204.372L73.7144 205.254C71.8944 204.526 70.8444 202.776 70.8444 200.914V199.22ZM77.5644 198.45H78.6704V206.248H77.5644V198.45ZM75.5484 201.824H77.9424V202.776H75.5484V201.824ZM74.8484 198.688H75.9544V205.842H74.8484V198.688ZM74.5124 206.528C77.1164 206.528 78.7404 207.368 78.7404 208.81C78.7404 210.238 77.1164 211.064 74.5124 211.064C71.8944 211.064 70.2984 210.238 70.2984 208.81C70.2984 207.368 71.8944 206.528 74.5124 206.528ZM74.5124 207.438C72.6084 207.438 71.4324 207.942 71.4324 208.81C71.4324 209.664 72.6084 210.168 74.5124 210.168C76.4164 210.168 77.5784 209.664 77.5784 208.81C77.5784 207.942 76.4164 207.438 74.5124 207.438ZM86.6073 198.646C89.3933 198.646 91.0593 199.43 91.0593 200.844C91.0593 202.258 89.3933 203.042 86.6073 203.042C83.8073 203.042 82.1553 202.258 82.1553 200.844C82.1553 199.43 83.8073 198.646 86.6073 198.646ZM86.6073 199.528C84.5353 199.528 83.3453 200.004 83.3453 200.844C83.3453 201.684 84.5353 202.16 86.6073 202.16C88.6653 202.16 89.8553 201.684 89.8553 200.844C89.8553 200.004 88.6653 199.528 86.6073 199.528ZM80.8813 203.882H92.3193V204.82H80.8813V203.882ZM82.2673 205.898H90.8633V208.754H83.4433V210.294H82.2953V207.914H89.7153V206.794H82.2673V205.898ZM82.2953 210.042H91.2413V210.952H82.2953V210.042ZM100.341 198.856H101.293V199.864C101.293 202.244 99.9065 204.148 97.7505 204.904L97.1765 203.966C99.0945 203.336 100.341 201.74 100.341 199.864V198.856ZM100.551 198.856H101.489V199.836C101.489 201.544 102.735 203.028 104.597 203.616L103.995 204.526C101.923 203.812 100.551 202.048 100.551 199.836V198.856ZM105.913 198.436H107.075V205.03H105.913V198.436ZM106.571 201.194H108.937V202.16H106.571V201.194ZM99.0385 205.618H107.075V208.656H100.215V210.546H99.0665V207.774H105.941V206.542H99.0385V205.618ZM99.0665 210.028H107.537V210.952H99.0665V210.028ZM119.351 198.422H120.513V211.106H119.351V198.422ZM110.867 207.088H111.917C114.031 207.088 115.921 207.004 118.161 206.64L118.287 207.592C115.991 207.97 114.087 208.054 111.917 208.054H110.867V207.088ZM110.839 199.612H116.691V204.134H112.029V207.452H110.867V203.182H115.515V200.564H110.839V199.612ZM124.558 202.23H133.154V203.182H124.558V202.23ZM123.004 204.876H134.484V205.828H123.004V204.876ZM124.558 198.898H125.706V202.706H124.558V198.898ZM124.474 209.832H133.224V210.784H124.474V209.832ZM124.474 207.088H125.622V210.084H124.474V207.088ZM148.876 201.95H151.074V202.93H148.876V201.95ZM144.578 199.402H145.81C145.81 202.678 143.57 205.058 139.888 206.178L139.398 205.24C142.646 204.274 144.578 202.328 144.578 199.92V199.402ZM139.972 199.402H145.236V200.368H139.972V199.402ZM144.802 205.898H145.81V206.444C145.81 208.88 143.584 210.532 141.05 211.036L140.588 210.112C142.828 209.706 144.802 208.292 144.802 206.444V205.898ZM144.97 205.898H145.95V206.444C145.95 208.264 147.924 209.678 150.164 210.084L149.688 211.008C147.154 210.504 144.97 208.852 144.97 206.444V205.898ZM148.358 198.408H149.52V206.822H148.358V198.408ZM154.909 199.22H155.833V200.914C155.833 202.804 154.741 204.792 152.879 205.618L152.249 204.708C153.915 203.98 154.909 202.342 154.909 200.914V199.22ZM155.091 199.22H156.015V200.914C156.015 202.314 156.967 203.742 158.591 204.372L157.961 205.254C156.141 204.526 155.091 202.776 155.091 200.914V199.22ZM161.811 198.45H162.917V206.248H161.811V198.45ZM159.794 201.824H162.189V202.776H159.794V201.824ZM159.095 198.688H160.201V205.842H159.095V198.688ZM158.758 206.528C161.363 206.528 162.987 207.368 162.987 208.81C162.987 210.238 161.363 211.064 158.758 211.064C156.141 211.064 154.545 210.238 154.545 208.81C154.545 207.368 156.141 206.528 158.758 206.528ZM158.758 207.438C156.855 207.438 155.678 207.942 155.678 208.81C155.678 209.664 156.855 210.168 158.758 210.168C160.663 210.168 161.825 209.664 161.825 208.81C161.825 207.942 160.663 207.438 158.758 207.438ZM171.26 200.508H172.142V200.872C172.142 202.622 171.05 204.372 169.216 205.086L168.684 204.204C170.252 203.588 171.26 202.202 171.26 200.872V200.508ZM171.484 200.508H172.352V200.872C172.352 202.132 173.388 203.434 174.942 203.966L174.424 204.848C172.59 204.19 171.484 202.566 171.484 200.872V200.508ZM168.964 199.864H174.606V200.788H168.964V199.864ZM171.26 198.506H172.352V200.41H171.26V198.506ZM178.176 198.45H179.282V205.212H178.176V198.45ZM176.16 201.32H178.554V202.258H176.16V201.32ZM175.488 198.688H176.58V205.086H175.488V198.688ZM170.938 205.758H179.282V208.698H172.114V210.616H170.966V207.844H178.162V206.654H170.938V205.758ZM170.966 210.028H179.772V210.938H170.966V210.028ZM190.705 198.45H191.867V207.774H190.705V198.45ZM183.621 209.86H192.217V210.812H183.621V209.86ZM183.621 207.032H184.783V210.336H183.621V207.032ZM182.151 205.016H183.173C185.567 205.016 187.233 204.932 189.193 204.596L189.319 205.548C187.303 205.898 185.623 205.968 183.173 205.968H182.151V205.016ZM182.123 199.332H187.863V203H183.285V205.31H182.151V202.104H186.729V200.284H182.123V199.332ZM197.732 200.242H198.67V202.3C198.67 204.974 197.06 207.662 195.044 208.656L194.372 207.732C196.206 206.864 197.732 204.484 197.732 202.3V200.242ZM197.956 200.242H198.894V202.3C198.894 204.442 200.42 206.626 202.282 207.424L201.624 208.348C199.58 207.396 197.956 204.932 197.956 202.3V200.242ZM194.792 199.724H201.862V200.704H194.792V199.724ZM203.57 198.436H204.732V211.092H203.57V198.436Z" fill="#4B4544"/>
<path d="M101.434 119.778V66.9994H122.64V119.778M65.9294 119.778V94.173H87.1346V119.778M137.795 119.778V41.7813H159V119.778M50 78.59L95.364 33.2259L110.805 47.1386L151.911 6.05229M150.974 24.8334L152.868 7.68191C152.904 7.32097 152.858 6.95671 152.735 6.61554C152.612 6.27437 152.415 5.96483 152.158 5.70937C151.9 5.45391 151.589 5.25895 151.247 5.13858C150.905 5.01821 150.541 4.97546 150.18 5.01344L133.048 6.90784" stroke="#FFA451" stroke-width="8.6625" stroke-linecap="round" stroke-linejoin="round"/>
</svg>
