<svg width="139" height="184" viewBox="0 0 139 184" fill="none" xmlns="http://www.w3.org/2000/svg">
<path d="M18.489 162.523H25.424V173.525H18.489V162.523ZM21.9825 137.807C32.3068 137.807 40.024 143.074 40.024 151.104C40.024 159.238 32.3068 164.452 21.9825 164.452C11.6583 164.452 3.94111 159.238 3.94111 151.104C3.94111 143.074 11.6583 137.807 21.9825 137.807ZM21.9825 143.282C15.3604 143.282 10.7718 146.202 10.7718 151.104C10.7718 156.109 15.3604 158.977 21.9825 158.977C28.6047 158.977 33.1933 156.109 33.1933 151.104C33.1933 146.202 28.6047 143.282 21.9825 143.282ZM0.186823 172.43H43.8825V178.061H0.186823V172.43ZM69.6892 165.391C80.1178 165.391 86.792 168.832 86.792 174.568C86.792 180.199 80.1178 183.641 69.6892 183.641C59.2606 183.641 52.5863 180.199 52.5863 174.568C52.5863 168.832 59.2606 165.391 69.6892 165.391ZM69.6892 170.605C63.1713 170.605 59.4692 171.961 59.4692 174.568C59.4692 177.123 63.1713 178.426 69.6892 178.426C76.207 178.426 79.9092 177.123 79.9092 174.568C79.9092 171.961 76.207 170.605 69.6892 170.605ZM53.1078 137.494H83.6635V142.969H53.1078V137.494ZM48.2063 156.891H91.6935V162.419H48.2063V156.891ZM64.3185 148.496H71.2013V158.299H64.3185V148.496ZM79.6485 137.494H86.5313V141.457C86.5313 145.264 86.5313 149.383 85.2278 154.389L78.3449 153.659C79.6485 148.705 79.6485 145.211 79.6485 141.457V137.494ZM104.725 144.012H109.835V144.742C109.835 151.416 106.446 158.143 98.9894 160.75L95.9651 155.588C101.857 153.346 104.725 148.861 104.725 144.742V144.012ZM106.133 144.012H111.243V144.742C111.243 148.757 114.111 152.929 120.003 154.806L117.083 159.916C109.522 157.569 106.133 151.312 106.133 144.742V144.012ZM97.373 139.893H118.543V145.264H97.373V139.893ZM104.725 135.565H111.243V143.491H104.725V135.565ZM130.64 135.409H137.21V160.698H130.64V135.409ZM124.8 145.316H132.465V150.791H124.8V145.316ZM120.577 136.295H127.042V160.333H120.577V136.295ZM104.412 162.419H137.21V175.089H111.347V181.19H104.464V170.24H130.432V167.581H104.412V162.419ZM104.464 178.009H138.774V183.171H104.464V178.009Z" fill="white"/>
<path d="M67.4343 119.778V66.9994H88.6395V119.778M31.9294 119.778V94.173H53.1346V119.778M103.795 119.778V41.7813H125V119.778M16 78.59L61.364 33.2259L76.8045 47.1386L117.911 6.05229M116.974 24.8334L118.868 7.68191C118.904 7.32097 118.858 6.95671 118.735 6.61554C118.612 6.27437 118.415 5.96483 118.158 5.70937C117.9 5.45391 117.589 5.25895 117.247 5.13858C116.905 5.01821 116.541 4.97546 116.18 5.01344L99.0485 6.90784" stroke="#0E3E3E" stroke-width="8.6625" stroke-linecap="round" stroke-linejoin="round"/>
</svg>
