<svg width="17" height="17" viewBox="0 0 17 17" fill="none" xmlns="http://www.w3.org/2000/svg">
<circle cx="8.5" cy="8.5" r="8.5" fill="#FFA451"/>
<path d="M12.4375 7.9375H9.0625V4.5625C9.0625 4.41332 9.00324 4.27024 8.89775 4.16475C8.79226 4.05926 8.64918 4 8.5 4C8.35082 4 8.20774 4.05926 8.10225 4.16475C7.99676 4.27024 7.9375 4.41332 7.9375 4.5625V7.9375H4.5625C4.41332 7.9375 4.27024 7.99676 4.16475 8.10225C4.05926 8.20774 4 8.35082 4 8.5C4 8.64918 4.05926 8.79226 4.16475 8.89775C4.27024 9.00324 4.41332 9.0625 4.5625 9.0625H7.9375V12.4375C7.9375 12.5867 7.99676 12.7298 8.10225 12.8352C8.20774 12.9407 8.35082 13 8.5 13C8.64918 13 8.79226 12.9407 8.89775 12.8352C9.00324 12.7298 9.0625 12.5867 9.0625 12.4375V9.0625H12.4375C12.5867 9.0625 12.7298 9.00324 12.8352 8.89775C12.9407 8.79226 13 8.64918 13 8.5C13 8.35082 12.9407 8.20774 12.8352 8.10225C12.7298 7.99676 12.5867 7.9375 12.4375 7.9375Z" fill="white"/>
</svg>
