<svg width="22" height="21" viewBox="0 0 22 21" fill="none" xmlns="http://www.w3.org/2000/svg">
<path d="M15.4286 0.25H6.50893C3.22481 0.25 0.5625 2.84035 0.5625 6.03571V14.7143C0.5625 17.9096 3.22481 20.5 6.50893 20.5H15.4286C18.7127 20.5 21.375 17.9096 21.375 14.7143V6.03571C21.375 2.84035 18.7127 0.25 15.4286 0.25Z" fill="#5181FF"/>
<path d="M6.34375 8.125C7.62091 8.125 8.65625 7.11764 8.65625 5.875C8.65625 4.63236 7.62091 3.625 6.34375 3.625C5.06659 3.625 4.03125 4.63236 4.03125 5.875C4.03125 7.11764 5.06659 8.125 6.34375 8.125Z" fill="white"/>
<path d="M15.5938 17.125C16.8709 17.125 17.9062 16.1176 17.9062 14.875C17.9062 13.6324 16.8709 12.625 15.5938 12.625C14.3166 12.625 13.2812 13.6324 13.2812 14.875C13.2812 16.1176 14.3166 17.125 15.5938 17.125Z" fill="white"/>
<path d="M10.9688 12.625C12.2459 12.625 13.2812 11.6176 13.2812 10.375C13.2812 9.13236 12.2459 8.125 10.9688 8.125C9.69159 8.125 8.65625 9.13236 8.65625 10.375C8.65625 11.6176 9.69159 12.625 10.9688 12.625Z" fill="white"/>
<path d="M6.34375 17.125C7.62091 17.125 8.65625 16.1176 8.65625 14.875C8.65625 13.6324 7.62091 12.625 6.34375 12.625C5.06659 12.625 4.03125 13.6324 4.03125 14.875C4.03125 16.1176 5.06659 17.125 6.34375 17.125Z" fill="white"/>
<path d="M15.5938 8.125C16.8709 8.125 17.9062 7.11764 17.9062 5.875C17.9062 4.63236 16.8709 3.625 15.5938 3.625C14.3166 3.625 13.2812 4.63236 13.2812 5.875C13.2812 7.11764 14.3166 8.125 15.5938 8.125Z" fill="white"/>
</svg>
