<svg width="26" height="25" viewBox="0 0 26 25" fill="none" xmlns="http://www.w3.org/2000/svg">
<path d="M12.1395 0C11.4931 0 10.8731 0.24693 10.4159 0.686468C9.95882 1.12601 9.70202 1.72215 9.70202 2.34375C9.70202 2.96535 9.95882 3.56149 10.4159 4.00103C10.8731 4.44057 11.4931 4.6875 12.1395 4.6875C12.786 4.6875 13.406 4.44057 13.8631 4.00103C14.3202 3.56149 14.577 2.96535 14.577 2.34375C14.577 1.72215 14.3202 1.12601 13.8631 0.686468C13.406 0.24693 12.786 0 12.1395 0ZM12.1346 5.4375C12.1005 5.43828 12.0656 5.44141 12.0315 5.44453C11.9834 5.44833 11.9357 5.45486 11.8885 5.46406C11.8746 5.46719 11.8616 5.46719 11.8478 5.47031L6.64945 6.70781C6.47456 6.74934 6.31142 6.82764 6.17177 6.93706C6.03212 7.04648 5.91944 7.18431 5.84183 7.34062L4.11852 10.825C4.03 11.0036 3.98996 11.2008 4.00214 11.3982C4.01432 11.5957 4.07831 11.787 4.18816 11.9542C4.29801 12.1215 4.45013 12.2592 4.63032 12.3547C4.81052 12.4501 5.01292 12.5001 5.21864 12.5C5.44919 12.5003 5.67508 12.4376 5.8701 12.3194C6.06512 12.2012 6.22126 12.0322 6.32039 11.832L7.79589 8.84844L10.5145 8.20156V14.2406L8.66852 18.975L5.86133 17.3539C5.58399 17.1938 5.25189 17.1463 4.93808 17.2217C4.62427 17.297 4.35445 17.4892 4.18798 17.7559C4.02152 18.0225 3.97204 18.3419 4.05044 18.6436C4.12883 18.9453 4.32868 19.2048 4.60602 19.3648L8.66852 21.7086C8.82197 21.7972 8.99386 21.8522 9.17194 21.8696C9.35002 21.887 9.5299 21.8665 9.69876 21.8094C10.04 21.6953 10.3114 21.4406 10.4381 21.1148L11.9738 17.1719H11.9884L14.6591 20.0336L15.4098 24.0359C15.4676 24.3415 15.649 24.6127 15.9143 24.7899C16.1796 24.9671 16.5072 25.0359 16.8252 24.9813C17.1435 24.9259 17.4258 24.7513 17.6102 24.4958C17.7946 24.2403 17.8658 23.9248 17.8083 23.6187L16.9958 19.2906C16.9556 19.0764 16.8544 18.877 16.7033 18.7148L13.7645 15.5664V9.19141L15.9355 10.7086C16.1165 10.8357 16.3306 10.9122 16.5541 10.9294C16.7776 10.9467 17.0016 10.904 17.2014 10.8062L20.4091 9.24844C20.552 9.17917 20.6792 9.0835 20.7836 8.9669C20.8879 8.85031 20.9674 8.71508 21.0173 8.56894C21.0673 8.4228 21.0868 8.26863 21.0747 8.11524C21.0627 7.96185 21.0193 7.81225 20.947 7.675C20.8012 7.39752 20.5467 7.18704 20.2396 7.08978C19.9325 6.99252 19.5978 7.01643 19.309 7.15625L16.7667 8.39219L13.3664 6.01719C12.9796 5.7625 12.7473 5.56563 12.4873 5.48828C12.4491 5.47667 12.4103 5.46702 12.3711 5.45937C12.3345 5.45234 12.298 5.44922 12.2598 5.44609C12.2175 5.44219 12.1769 5.4375 12.1346 5.4375Z" fill="#FF5353"/>
</svg>
